<mxfile host="Electron" modified="2023-08-06T14:11:54.630Z" agent="Mozilla/5.0 (Macintosh; Intel Mac OS X 10_15_7) AppleWebKit/537.36 (KHTML, like Gecko) draw.io/21.6.5 Chrome/114.0.5735.243 Electron/25.3.1 Safari/537.36" version="21.6.5" etag="pWXp7Xw7Uc7njQaIzEAk" type="device">
  <diagram id="wjNKHS0xhbFejRkHgXDh" name="Page-1">
    <mxGraphModel dx="1026" dy="743" grid="1" gridSize="10" guides="1" tooltips="1" connect="1" arrows="1" fold="1" page="1" pageScale="1" pageWidth="827" pageHeight="1169" math="0" shadow="0">
      <root>
        <mxCell id="0" />
        <mxCell id="1" parent="0" />
        <mxCell id="2" value="B" style="sketch=0;pointerEvents=1;shadow=0;dashed=0;html=1;strokeColor=none;fillColor=#505050;labelPosition=center;verticalLabelPosition=top;verticalAlign=bottom;outlineConnect=0;align=center;shape=mxgraph.office.concepts.document;" parent="1" vertex="1">
          <mxGeometry x="314" y="64" width="40" height="47" as="geometry" />
        </mxCell>
        <mxCell id="3" value="A" style="sketch=0;pointerEvents=1;shadow=0;dashed=0;html=1;strokeColor=none;fillColor=#505050;labelPosition=center;verticalLabelPosition=top;verticalAlign=bottom;outlineConnect=0;align=center;shape=mxgraph.office.concepts.document;" parent="1" vertex="1">
          <mxGeometry x="234" y="64" width="40" height="47" as="geometry" />
        </mxCell>
        <mxCell id="4" value="E" style="sketch=0;pointerEvents=1;shadow=0;dashed=0;html=1;strokeColor=none;fillColor=#505050;labelPosition=center;verticalLabelPosition=top;verticalAlign=bottom;outlineConnect=0;align=center;shape=mxgraph.office.concepts.document;" parent="1" vertex="1">
          <mxGeometry x="554" y="64" width="40" height="47" as="geometry" />
        </mxCell>
        <mxCell id="5" value="D" style="sketch=0;pointerEvents=1;shadow=0;dashed=0;html=1;strokeColor=none;fillColor=#505050;labelPosition=center;verticalLabelPosition=top;verticalAlign=bottom;outlineConnect=0;align=center;shape=mxgraph.office.concepts.document;" parent="1" vertex="1">
          <mxGeometry x="474" y="64" width="40" height="47" as="geometry" />
        </mxCell>
        <mxCell id="6" value="C" style="sketch=0;pointerEvents=1;shadow=0;dashed=0;html=1;strokeColor=none;fillColor=#505050;labelPosition=center;verticalLabelPosition=top;verticalAlign=bottom;outlineConnect=0;align=center;shape=mxgraph.office.concepts.document;" parent="1" vertex="1">
          <mxGeometry x="394" y="64" width="40" height="47" as="geometry" />
        </mxCell>
        <mxCell id="7" value="&lt;b&gt;Recommender 1&lt;/b&gt;" style="rounded=1;whiteSpace=wrap;html=1;" parent="1" vertex="1">
          <mxGeometry x="354" y="134" width="120" height="60" as="geometry" />
        </mxCell>
        <mxCell id="8" value="&lt;b&gt;Recommender 2&lt;/b&gt;" style="rounded=1;whiteSpace=wrap;html=1;" parent="1" vertex="1">
          <mxGeometry x="354" y="354" width="120" height="60" as="geometry" />
        </mxCell>
        <mxCell id="20" value="" style="edgeStyle=orthogonalEdgeStyle;html=1;" parent="1" source="9" target="8" edge="1">
          <mxGeometry relative="1" as="geometry">
            <Array as="points">
              <mxPoint x="334" y="384" />
            </Array>
          </mxGeometry>
        </mxCell>
        <mxCell id="9" value="C" style="sketch=0;pointerEvents=1;shadow=0;dashed=0;html=1;strokeColor=none;fillColor=#505050;labelPosition=center;verticalLabelPosition=top;verticalAlign=bottom;outlineConnect=0;align=center;shape=mxgraph.office.concepts.document;" parent="1" vertex="1">
          <mxGeometry x="314" y="284" width="40" height="47" as="geometry" />
        </mxCell>
        <mxCell id="22" value="" style="edgeStyle=orthogonalEdgeStyle;html=1;" parent="1" source="12" target="8" edge="1">
          <mxGeometry relative="1" as="geometry">
            <Array as="points">
              <mxPoint x="494" y="384" />
            </Array>
          </mxGeometry>
        </mxCell>
        <mxCell id="12" value="E" style="sketch=0;pointerEvents=1;shadow=0;dashed=0;html=1;strokeColor=none;fillColor=#505050;labelPosition=center;verticalLabelPosition=top;verticalAlign=bottom;outlineConnect=0;align=center;shape=mxgraph.office.concepts.document;" parent="1" vertex="1">
          <mxGeometry x="474" y="284" width="40" height="47" as="geometry" />
        </mxCell>
        <mxCell id="21" value="" style="edgeStyle=orthogonalEdgeStyle;html=1;" parent="1" source="13" target="8" edge="1">
          <mxGeometry relative="1" as="geometry" />
        </mxCell>
        <mxCell id="13" value="A" style="sketch=0;pointerEvents=1;shadow=0;dashed=0;html=1;strokeColor=none;fillColor=#505050;labelPosition=center;verticalLabelPosition=top;verticalAlign=bottom;outlineConnect=0;align=center;shape=mxgraph.office.concepts.document;" parent="1" vertex="1">
          <mxGeometry x="394" y="284" width="40" height="47" as="geometry" />
        </mxCell>
        <mxCell id="14" value="" style="endArrow=classic;html=1;entryX=0;entryY=0.5;entryDx=0;entryDy=0;edgeStyle=orthogonalEdgeStyle;" parent="1" source="3" target="7" edge="1">
          <mxGeometry width="50" height="50" relative="1" as="geometry">
            <mxPoint x="390" y="494" as="sourcePoint" />
            <mxPoint x="440" y="444" as="targetPoint" />
            <Array as="points">
              <mxPoint x="254" y="164" />
            </Array>
          </mxGeometry>
        </mxCell>
        <mxCell id="15" value="" style="endArrow=classic;html=1;entryX=0;entryY=0;entryDx=0;entryDy=0;edgeStyle=orthogonalEdgeStyle;" parent="1" source="2" target="7" edge="1">
          <mxGeometry width="50" height="50" relative="1" as="geometry">
            <mxPoint x="264" y="121" as="sourcePoint" />
            <mxPoint x="364" y="174" as="targetPoint" />
            <Array as="points">
              <mxPoint x="334" y="134" />
            </Array>
          </mxGeometry>
        </mxCell>
        <mxCell id="16" value="" style="endArrow=classic;html=1;entryX=0.5;entryY=0;entryDx=0;entryDy=0;edgeStyle=orthogonalEdgeStyle;" parent="1" source="6" target="7" edge="1">
          <mxGeometry width="50" height="50" relative="1" as="geometry">
            <mxPoint x="344" y="121" as="sourcePoint" />
            <mxPoint x="364" y="144" as="targetPoint" />
            <Array as="points">
              <mxPoint x="414" y="114" />
              <mxPoint x="414" y="114" />
            </Array>
          </mxGeometry>
        </mxCell>
        <mxCell id="17" value="" style="endArrow=classic;html=1;edgeStyle=orthogonalEdgeStyle;entryX=1;entryY=0;entryDx=0;entryDy=0;" parent="1" source="5" target="7" edge="1">
          <mxGeometry width="50" height="50" relative="1" as="geometry">
            <mxPoint x="344" y="121" as="sourcePoint" />
            <mxPoint x="474" y="144" as="targetPoint" />
            <Array as="points">
              <mxPoint x="494" y="134" />
            </Array>
          </mxGeometry>
        </mxCell>
        <mxCell id="18" value="" style="endArrow=classic;html=1;entryX=1;entryY=0.5;entryDx=0;entryDy=0;edgeStyle=orthogonalEdgeStyle;" parent="1" source="4" target="7" edge="1">
          <mxGeometry width="50" height="50" relative="1" as="geometry">
            <mxPoint x="264" y="121" as="sourcePoint" />
            <mxPoint x="364" y="174" as="targetPoint" />
            <Array as="points">
              <mxPoint x="574" y="164" />
            </Array>
          </mxGeometry>
        </mxCell>
        <mxCell id="19" value="" style="shape=flexArrow;endArrow=classic;html=1;exitX=0.5;exitY=1;exitDx=0;exitDy=0;" parent="1" source="7" edge="1">
          <mxGeometry width="50" height="50" relative="1" as="geometry">
            <mxPoint x="390" y="494" as="sourcePoint" />
            <mxPoint x="414" y="254" as="targetPoint" />
          </mxGeometry>
        </mxCell>
        <mxCell id="23" value="" style="shape=flexArrow;endArrow=classic;html=1;exitX=0.5;exitY=1;exitDx=0;exitDy=0;" parent="1" edge="1">
          <mxGeometry width="50" height="50" relative="1" as="geometry">
            <mxPoint x="414" y="414" as="sourcePoint" />
            <mxPoint x="414" y="474" as="targetPoint" />
          </mxGeometry>
        </mxCell>
        <mxCell id="24" value="A" style="sketch=0;pointerEvents=1;shadow=0;dashed=0;html=1;strokeColor=none;fillColor=#505050;labelPosition=center;verticalLabelPosition=top;verticalAlign=bottom;outlineConnect=0;align=center;shape=mxgraph.office.concepts.document;" parent="1" vertex="1">
          <mxGeometry x="314" y="504" width="40" height="47" as="geometry" />
        </mxCell>
        <mxCell id="25" value="C" style="sketch=0;pointerEvents=1;shadow=0;dashed=0;html=1;strokeColor=none;fillColor=#505050;labelPosition=center;verticalLabelPosition=top;verticalAlign=bottom;outlineConnect=0;align=center;shape=mxgraph.office.concepts.document;" parent="1" vertex="1">
          <mxGeometry x="474" y="504" width="40" height="47" as="geometry" />
        </mxCell>
        <mxCell id="26" value="E" style="sketch=0;pointerEvents=1;shadow=0;dashed=0;html=1;strokeColor=none;fillColor=#505050;labelPosition=center;verticalLabelPosition=top;verticalAlign=bottom;outlineConnect=0;align=center;shape=mxgraph.office.concepts.document;" parent="1" vertex="1">
          <mxGeometry x="394" y="504" width="40" height="47" as="geometry" />
        </mxCell>
      </root>
    </mxGraphModel>
  </diagram>
</mxfile>
